<svg width="266" height="9" viewBox="0 0 266 9" fill="none" xmlns="http://www.w3.org/2000/svg">
<mask id="mask0_1294_7436" style="mask-type:alpha" maskUnits="userSpaceOnUse" x="0" y="0" width="266" height="9">
<rect width="266" height="9" rx="4.5" fill="url(#paint0_linear_1294_7436)"/>
</mask>
<g mask="url(#mask0_1294_7436)">
<rect width="266" height="45" rx="6" fill="url(#paint1_linear_1294_7436)"/>
<g opacity="0.2">
<rect x="-30.5781" y="15.8086" width="22" height="180" transform="rotate(-30 -30.5781 15.8086)" fill="white"/>
<rect x="-6.32812" y="1.80859" width="22" height="180" transform="rotate(-30 -6.32812 1.80859)" fill="white"/>
<rect x="17.918" y="-12.1914" width="22" height="180" transform="rotate(-30 17.918 -12.1914)" fill="white"/>
<rect x="43.0352" y="-26.6914" width="21" height="180" transform="rotate(-30 43.0352 -26.6914)" fill="white"/>
<rect x="67.2812" y="-40.6914" width="22" height="180" transform="rotate(-30 67.2812 -40.6914)" fill="white"/>
<rect x="91.5312" y="-54.6914" width="22" height="180" transform="rotate(-30 91.5312 -54.6914)" fill="white"/>
<rect x="115.781" y="-68.6914" width="22" height="180" transform="rotate(-30 115.781 -68.6914)" fill="white"/>
<rect x="140.027" y="-82.6914" width="22" height="180" transform="rotate(-30 140.027 -82.6914)" fill="white"/>
<rect x="164.277" y="-96.6914" width="22" height="180" transform="rotate(-30 164.277 -96.6914)" fill="white"/>
<rect x="188.527" y="-110.691" width="22" height="180" transform="rotate(-30 188.527 -110.691)" fill="white"/>
</g>
</g>
<defs>
<linearGradient id="paint0_linear_1294_7436" x1="-77.9192" y1="-4.58173e-08" x2="-63.7989" y2="77.1071" gradientUnits="userSpaceOnUse">
<stop stop-color="#FF8FD2"/>
<stop offset="1" stop-color="#F42272"/>
</linearGradient>
<linearGradient id="paint1_linear_1294_7436" x1="-77.9192" y1="-2.29087e-07" x2="120.542" y2="216.748" gradientUnits="userSpaceOnUse">
<stop stop-color="#FF8FD2"/>
<stop offset="1" stop-color="#F42272"/>
</linearGradient>
</defs>
</svg>
