<svg width="22" height="22" viewBox="0 0 22 22" fill="none" xmlns="http://www.w3.org/2000/svg">
<path d="M7.104 3.20825V1.83325C7.104 1.45742 6.79234 1.14575 6.4165 1.14575C6.04067 1.14575 5.729 1.45742 5.729 1.83325V3.26325C5.95817 3.23575 6.169 3.20825 6.4165 3.20825H7.104Z" fill="url(#paint0_linear_252_15649)"/>
<path d="M14.4375 3.26325V1.83325C14.4375 1.45742 14.1258 1.14575 13.75 1.14575C13.3742 1.14575 13.0625 1.45742 13.0625 1.83325V3.20825H13.75C13.9975 3.20825 14.2083 3.23575 14.4375 3.26325Z" fill="url(#paint1_linear_252_15649)"/>
<path d="M19.516 13.7224C18.8102 13.1633 17.921 12.8333 16.9585 12.8333C15.996 12.8333 15.0885 13.1724 14.3827 13.7408C13.4293 14.4924 12.8335 15.6658 12.8335 16.9583C12.8335 17.7283 13.0535 18.4708 13.4293 19.0758C13.7227 19.5524 14.0985 19.9741 14.5477 20.2949C15.226 20.7899 16.051 21.0833 16.9585 21.0833C18.0035 21.0833 18.9477 20.6983 19.6718 20.0566C19.9927 19.7908 20.2677 19.4608 20.4877 19.0849C20.8635 18.4708 21.0835 17.7283 21.0835 16.9583C21.0835 15.6474 20.4693 14.4741 19.516 13.7224ZM16.9585 18.9199C16.9585 17.8383 16.0785 16.9583 14.9968 16.9583C16.0785 16.9583 16.9585 16.0783 16.9585 14.9966C16.9585 16.0783 17.8385 16.9583 18.9202 16.9583C17.8385 16.9583 16.9585 17.8383 16.9585 18.9199Z" fill="url(#paint2_linear_252_15649)"/>
<path d="M14.4377 3.26325V4.58325C14.4377 4.95909 14.126 5.27075 13.7502 5.27075C13.3743 5.27075 13.0627 4.95909 13.0627 4.58325V3.20825H7.10433V4.58325C7.10433 4.95909 6.79266 5.27075 6.41683 5.27075C6.041 5.27075 5.72933 4.95909 5.72933 4.58325V3.26325C3.02516 3.51075 1.8335 5.25242 1.8335 7.79159V15.5833C1.8335 18.3333 3.2085 20.1666 6.41683 20.1666H10.2027C10.8993 20.1666 11.3668 19.3874 11.1927 18.7091C11.0643 18.2141 11.0002 17.7008 11.0002 17.1874C11.0002 15.2808 11.8527 13.5208 13.3285 12.3566C14.401 11.4858 15.776 10.9999 17.1877 10.9999H17.2243C17.8018 10.9999 18.3335 10.5783 18.3335 10.0008V7.79159C18.3335 5.25242 17.1418 3.51075 14.4377 3.26325ZM8.25016 15.3541H6.41683C6.041 15.3541 5.72933 15.0424 5.72933 14.6666C5.72933 14.2908 6.041 13.9791 6.41683 13.9791H8.25016C8.626 13.9791 8.93766 14.2908 8.93766 14.6666C8.93766 15.0424 8.626 15.3541 8.25016 15.3541ZM11.0002 10.7708H6.41683C6.041 10.7708 5.72933 10.4591 5.72933 10.0833C5.72933 9.70742 6.041 9.39575 6.41683 9.39575H11.0002C11.376 9.39575 11.6877 9.70742 11.6877 10.0833C11.6877 10.4591 11.376 10.7708 11.0002 10.7708Z" fill="url(#paint3_linear_252_15649)"/>
<defs>
<linearGradient id="paint0_linear_252_15649" x1="5.32623" y1="1.14575" x2="7.54383" y2="1.41181" gradientUnits="userSpaceOnUse">
<stop stop-color="#FF8FD2"/>
<stop offset="1" stop-color="#F42272"/>
</linearGradient>
<linearGradient id="paint1_linear_252_15649" x1="12.6597" y1="1.14575" x2="14.8773" y2="1.41181" gradientUnits="userSpaceOnUse">
<stop stop-color="#FF8FD2"/>
<stop offset="1" stop-color="#F42272"/>
</linearGradient>
<linearGradient id="paint2_linear_252_15649" x1="10.4168" y1="12.8333" x2="23.4684" y2="15.2447" gradientUnits="userSpaceOnUse">
<stop stop-color="#FF8FD2"/>
<stop offset="1" stop-color="#F42272"/>
</linearGradient>
<linearGradient id="paint3_linear_252_15649" x1="-2.99984" y1="3.20825" x2="23.1494" y2="7.90904" gradientUnits="userSpaceOnUse">
<stop stop-color="#FF8FD2"/>
<stop offset="1" stop-color="#F42272"/>
</linearGradient>
</defs>
</svg>
