<svg width="22" height="22" viewBox="0 0 22 22" fill="none" xmlns="http://www.w3.org/2000/svg">
<path d="M7.3335 1.83331V4.58331" stroke="#B6BEC7" stroke-width="1.5" stroke-miterlimit="10" stroke-linecap="round" stroke-linejoin="round"/>
<path d="M14.6665 1.83331V4.58331" stroke="#B6BEC7" stroke-width="1.5" stroke-miterlimit="10" stroke-linecap="round" stroke-linejoin="round"/>
<path d="M19.25 7.79165V12.4942C18.4342 11.8433 17.3983 11.4583 16.2708 11.4583C15.1433 11.4583 14.0892 11.8525 13.2642 12.5216C12.155 13.3925 11.4583 14.7583 11.4583 16.2708C11.4583 17.1691 11.715 18.0308 12.155 18.7458C12.4942 19.305 12.9342 19.7908 13.4567 20.1666H7.33333C4.125 20.1666 2.75 18.3333 2.75 15.5833V7.79165C2.75 5.04165 4.125 3.20831 7.33333 3.20831H14.6667C17.875 3.20831 19.25 5.04165 19.25 7.79165Z" stroke="#B6BEC7" stroke-width="1.5" stroke-miterlimit="10" stroke-linecap="round" stroke-linejoin="round"/>
<path d="M6.4165 10.0833H11.9165" stroke="#B6BEC7" stroke-width="1.5" stroke-miterlimit="10" stroke-linecap="round" stroke-linejoin="round"/>
<path d="M6.4165 14.6667H8.81817" stroke="#B6BEC7" stroke-width="1.5" stroke-miterlimit="10" stroke-linecap="round" stroke-linejoin="round"/>
<path d="M21.0835 16.2708C21.0835 17.1691 20.8268 18.0308 20.3868 18.7458C20.1302 19.1858 19.8093 19.5708 19.4335 19.8825C18.5902 20.6341 17.4902 21.0833 16.271 21.0833C15.2168 21.0833 14.2452 20.7441 13.4568 20.1666C12.9343 19.7908 12.4943 19.305 12.1552 18.7458C11.7152 18.0308 11.4585 17.1691 11.4585 16.2708C11.4585 14.7583 12.1552 13.3925 13.2643 12.5216C14.0893 11.8525 15.1435 11.4583 16.271 11.4583C17.3985 11.4583 18.4343 11.8433 19.2502 12.4942C20.3685 13.3742 21.0835 14.74 21.0835 16.2708Z" stroke="#B6BEC7" stroke-width="1.5" stroke-miterlimit="10" stroke-linecap="round" stroke-linejoin="round"/>
<path d="M16.2707 18.5625C16.2707 17.2975 17.2973 16.2709 18.5623 16.2709C17.2973 16.2709 16.2707 15.2442 16.2707 13.9792C16.2707 15.2442 15.244 16.2709 13.979 16.2709C15.244 16.2709 16.2707 17.2975 16.2707 18.5625Z" stroke="#B6BEC7" stroke-width="1.5" stroke-linecap="round" stroke-linejoin="round"/>
</svg>
