<svg width="27" height="25" viewBox="0 0 27 25" fill="none" xmlns="http://www.w3.org/2000/svg">
<path d="M23.1615 6.22982C19.4887 5.88607 15.7939 5.70898 12.1101 5.70898C9.92624 5.70898 7.74242 5.81315 5.55859 6.02148L3.30859 6.22982" stroke="#FE6E98" stroke-width="1.5" stroke-linecap="round" stroke-linejoin="round"/>
<path d="M9.375 5.17773L9.61765 3.81315C9.79412 2.82357 9.92647 2.08398 11.7904 2.08398H14.6801C16.5441 2.08398 16.6875 2.86523 16.8529 3.82357L17.0956 5.17773" stroke="#FE6E98" stroke-width="1.5" stroke-linecap="round" stroke-linejoin="round"/>
<path d="M20.79 9.52148L20.0731 20.0111C19.9517 21.6465 19.8525 22.9173 16.7753 22.9173H9.69439C6.61719 22.9173 6.51792 21.6465 6.3966 20.0111L5.67969 9.52148" stroke="#FE6E98" stroke-width="1.5" stroke-linecap="round" stroke-linejoin="round"/>
<path d="M11.3945 17.1875H15.0673" stroke="#FE6E98" stroke-width="1.5" stroke-linecap="round" stroke-linejoin="round"/>
<path d="M10.4766 13.0215H15.9913" stroke="#FE6E98" stroke-width="1.5" stroke-linecap="round" stroke-linejoin="round"/>
</svg>
