<svg width="22" height="22" viewBox="0 0 22 22" fill="none" xmlns="http://www.w3.org/2000/svg">
<path d="M14.841 1.83325H7.15933C3.82266 1.83325 1.8335 3.82242 1.8335 7.15909V14.8408C1.8335 18.1774 3.82266 20.1666 7.15933 20.1666H14.841C18.1777 20.1666 20.1668 18.1774 20.1668 14.8408V7.15909C20.1668 3.82242 18.1777 1.83325 14.841 1.83325ZM9.13933 13.6583L7.07683 15.7208C6.93933 15.8583 6.76516 15.9224 6.591 15.9224C6.41683 15.9224 6.2335 15.8583 6.10516 15.7208L5.41766 15.0333C5.14266 14.7674 5.14266 14.3274 5.41766 14.0616C5.6835 13.7958 6.11433 13.7958 6.38933 14.0616L6.591 14.2633L8.16766 12.6866C8.4335 12.4208 8.86433 12.4208 9.13933 12.6866C9.40516 12.9524 9.40516 13.3924 9.13933 13.6583ZM9.13933 7.24159L7.07683 9.30409C6.93933 9.44159 6.76516 9.50575 6.591 9.50575C6.41683 9.50575 6.2335 9.44159 6.10516 9.30409L5.41766 8.61659C5.14266 8.35075 5.14266 7.91075 5.41766 7.64492C5.6835 7.37909 6.11433 7.37909 6.38933 7.64492L6.591 7.84659L8.16766 6.26992C8.4335 6.00409 8.86433 6.00409 9.13933 6.26992C9.40516 6.53575 9.40516 6.97575 9.13933 7.24159ZM16.0968 15.2349H11.2843C10.9085 15.2349 10.5968 14.9233 10.5968 14.5474C10.5968 14.1716 10.9085 13.8599 11.2843 13.8599H16.0968C16.4818 13.8599 16.7843 14.1716 16.7843 14.5474C16.7843 14.9233 16.4818 15.2349 16.0968 15.2349ZM16.0968 8.81825H11.2843C10.9085 8.81825 10.5968 8.50659 10.5968 8.13075C10.5968 7.75492 10.9085 7.44325 11.2843 7.44325H16.0968C16.4818 7.44325 16.7843 7.75492 16.7843 8.13075C16.7843 8.50659 16.4818 8.81825 16.0968 8.81825Z" fill="url(#paint0_linear_1124_3071)"/>
<defs>
<linearGradient id="paint0_linear_1124_3071" x1="-3.53687" y1="1.83325" x2="25.4667" y2="7.19199" gradientUnits="userSpaceOnUse">
<stop stop-color="#FF8FD2"/>
<stop offset="1" stop-color="#F42272"/>
</linearGradient>
</defs>
</svg>
